<?xml version="1.0" standalone="no"?>
<!DOCTYPE svg PUBLIC "-//W3C//DTD SVG 20010904//EN"
 "http://www.w3.org/TR/2001/REC-SVG-20010904/DTD/svg10.dtd">
<svg version="1.0" xmlns="http://www.w3.org/2000/svg"
 width="354.000000pt" height="112.000000pt" viewBox="0 0 354.000000 112.000000"
 preserveAspectRatio="xMidYMid meet">

<g transform="translate(0.000000,112.000000) scale(0.100000,-0.100000)"
fill="#000000" stroke="none">
<path d="M290 775 c-79 -36 -120 -102 -120 -195 0 -149 119 -239 262 -200 157
44 189 277 51 373 -50 36 -139 46 -193 22z m116 -100 c24 -10 39 -26 50 -50
48 -117 -113 -207 -171 -95 -8 16 -15 38 -15 50 0 36 30 81 63 95 40 18 32 18
73 0z"/>
<path d="M2124 779 c-18 -5 -46 -22 -63 -38 -45 -42 -44 -98 4 -165 19 -27 35
-55 35 -61 0 -17 -31 -42 -62 -50 l-27 -7 22 -44 c16 -33 27 -44 44 -44 50 0
112 49 133 104 15 40 5 77 -36 128 -18 24 -34 50 -34 59 0 22 20 39 47 39 27
0 28 8 6 55 -18 37 -21 38 -69 24z"/>
<path d="M934 749 c3 -17 6 -107 6 -200 l0 -169 50 0 50 0 0 200 0 200 -56 0
-56 0 6 -31z"/>
<path d="M1112 758 c-7 -7 -12 -25 -12 -40 0 -39 40 -58 78 -37 33 18 39 44
16 70 -19 21 -64 25 -82 7z"/>
<path d="M2280 700 c0 -35 -5 -52 -17 -58 -23 -13 -24 -74 -1 -80 15 -4 18
-16 18 -83 0 -90 7 -99 85 -99 65 0 85 13 85 56 0 32 -2 34 -25 28 -36 -9 -55
11 -55 57 0 38 1 39 35 39 30 0 35 3 35 23 0 12 3 32 6 45 6 20 3 22 -35 22
l-41 0 0 40 c0 42 -2 44 -57 54 l-33 6 0 -50z"/>
<path d="M1643 650 c-41 -25 -60 -55 -69 -106 -9 -57 22 -126 68 -150 40 -21
112 -24 156 -5 34 14 40 36 19 65 -12 16 -18 17 -53 6 -28 -8 -47 -9 -66 -1
-47 18 -32 28 55 37 l82 9 3 38 c6 66 -56 127 -128 127 -19 0 -49 -9 -67 -20z
m92 -72 c14 -21 14 -23 -2 -30 -29 -11 -73 -9 -73 4 0 16 30 48 46 48 7 0 20
-10 29 -22z"/>
<path d="M3073 650 c-41 -25 -60 -55 -69 -106 -9 -57 22 -126 68 -150 40 -21
112 -24 156 -5 34 14 40 36 19 65 -12 16 -18 17 -53 6 -28 -8 -47 -9 -66 -1
-47 18 -32 28 55 37 l82 9 3 38 c6 66 -56 127 -128 127 -19 0 -49 -9 -67 -20z
m92 -72 c14 -21 14 -23 -2 -30 -29 -11 -73 -9 -73 4 0 16 30 48 46 48 7 0 20
-10 29 -22z"/>
<path d="M640 651 c-30 -5 -35 -10 -34 -33 0 -16 1 -75 2 -133 l2 -105 50 0
50 0 0 90 c0 78 2 91 19 100 46 24 65 -16 59 -123 l-3 -62 48 -3 47 -3 0 125
c0 118 -1 126 -22 140 -28 20 -88 21 -114 1 -25 -19 -44 -19 -44 0 0 16 -4 16
-60 6z"/>
<path d="M1290 651 c-30 -5 -35 -10 -34 -33 0 -16 1 -75 2 -133 l2 -105 50 0
50 0 0 90 c0 78 2 91 19 100 46 24 65 -16 59 -123 l-3 -62 48 -3 47 -3 0 125
c0 118 -1 126 -22 140 -28 20 -88 21 -114 1 -25 -19 -44 -19 -44 0 0 16 -4 16
-60 6z"/>
<path d="M2532 640 c-81 -50 -81 -190 0 -240 40 -24 116 -27 159 -4 33 17 69
82 69 124 0 42 -36 107 -69 124 -43 23 -119 20 -159 -4z m113 -74 c38 -27 14
-106 -32 -106 -20 0 -53 37 -53 60 0 23 33 60 53 60 7 0 22 -6 32 -14z"/>
<path d="M2830 651 c-30 -5 -35 -10 -34 -33 0 -16 1 -75 2 -133 l2 -105 50 0
50 0 0 79 c0 84 4 91 56 91 22 0 24 4 24 50 0 44 -3 50 -21 50 -11 0 -30 -5
-41 -11 -17 -9 -23 -8 -30 5 -5 9 -12 15 -16 15 -4 -1 -23 -4 -42 -8z"/>
<path d="M1094 634 c3 -9 6 -69 6 -135 l0 -119 50 0 50 0 0 119 c0 66 3 126 6
135 5 14 -3 16 -56 16 -53 0 -61 -2 -56 -16z"/>
</g>
</svg>
